<?xml version="1.0" encoding="utf-8"?>
<!-- Generator: Adobe Illustrator 27.5.0, SVG Export Plug-In . SVG Version: 6.00 Build 0)  -->
<svg version="1.1" xmlns="http://www.w3.org/2000/svg" xmlns:xlink="http://www.w3.org/1999/xlink" x="0px" y="0px"
	 viewBox="0 0 500 500" style="enable-background:new 0 0 500 500;" xml:space="preserve">
<g id="Background_Complete">
	<g>
		<rect y="382.398" style="fill:#EBEBEB;" width="500" height="0.25"/>
		<rect x="288.404" y="396.342" style="fill:#EBEBEB;" width="33.122" height="0.25"/>
		<rect x="407.085" y="393.629" style="fill:#EBEBEB;" width="8.693" height="0.25"/>
		<rect x="327.667" y="389.208" style="fill:#EBEBEB;" width="68.919" height="0.25"/>
		<rect x="194.843" y="395.11" style="fill:#EBEBEB;" width="30.304" height="0.25"/>
		<rect x="166.717" y="395.11" style="fill:#EBEBEB;" width="19.222" height="0.25"/>
		<rect x="52.459" y="390.888" style="fill:#EBEBEB;" width="46.838" height="0.25"/>
		<path style="fill:#EBEBEB;" d="M237.014,337.799H43.915c-3.147,0-5.708-2.561-5.708-5.708V60.66c0-3.147,2.561-5.708,5.708-5.708
			h193.099c3.146,0,5.707,2.561,5.707,5.708v271.432C242.721,335.239,240.16,337.799,237.014,337.799z M43.915,55.202
			c-3.01,0-5.458,2.448-5.458,5.458v271.432c0,3.01,2.448,5.458,5.458,5.458h193.099c3.009,0,5.457-2.448,5.457-5.458V60.66
			c0-3.009-2.448-5.458-5.457-5.458H43.915z"/>
		<path style="fill:#EBEBEB;" d="M453.31,337.799H260.212c-3.147,0-5.707-2.561-5.707-5.708V60.66c0-3.147,2.561-5.708,5.707-5.708
			H453.31c3.148,0,5.708,2.561,5.708,5.708v271.432C459.019,335.239,456.458,337.799,453.31,337.799z M260.212,55.202
			c-3.009,0-5.457,2.448-5.457,5.458v271.432c0,3.01,2.448,5.458,5.457,5.458H453.31c3.01,0,5.458-2.448,5.458-5.458V60.66
			c0-3.009-2.448-5.458-5.458-5.458H260.212z"/>
	</g>
	<g>
		<g>
			<g>
				<g>
					<g>
						
							<rect x="57.339" y="77.964" transform="matrix(-1 -1.224647e-16 1.224647e-16 -1 284.971 312.7076)" style="fill:#E6E6E6;" width="170.294" height="156.781"/>
						
							<rect x="53.296" y="77.964" transform="matrix(-1 -1.224647e-16 1.224647e-16 -1 279.171 312.7076)" style="fill:#F5F5F5;" width="172.58" height="156.781"/>
						
							<rect x="69.037" y="77.321" transform="matrix(-1.836970e-16 1 -1 -1.836970e-16 295.9394 16.7682)" style="fill:#FAFAFA;" width="141.096" height="158.066"/>
						<polygon style="fill:#FFFFFF;" points="199.088,226.902 145.932,85.806 123.55,85.806 176.707,226.902 						"/>
						<polygon style="fill:#FFFFFF;" points="170.363,226.902 117.206,85.806 101.795,85.806 154.952,226.902 						"/>
						
							<rect x="47.841" y="152.025" transform="matrix(-1.836970e-16 1 -1 -1.836970e-16 274.7426 37.9651)" style="fill:#E6E6E6;" width="141.096" height="8.658"/>
						
							<rect x="96.034" y="152.025" transform="matrix(-1.836970e-16 1 -1 -1.836970e-16 322.9361 -10.2284)" style="fill:#E6E6E6;" width="141.096" height="8.658"/>
						
							<rect x="39.733" y="150.454" transform="matrix(-1.836970e-16 1 -1 -1.836970e-16 271.6107 40.2419)" style="fill:#F5F5F5;" width="151.903" height="10.944"/>
						
							<rect x="87.926" y="150.454" transform="matrix(-1.836970e-16 1 -1 -1.836970e-16 319.8043 -7.9517)" style="fill:#F5F5F5;" width="151.903" height="10.944"/>
						
							<rect x="-9.61" y="155.969" transform="matrix(-1.836970e-16 1 -1 -1.836970e-16 217.2918 95.4158)" style="fill:#E6E6E6;" width="141.096" height="0.77"/>
					</g>
				</g>
			</g>
		</g>
		<g>
			
				<rect x="183.234" y="164.939" transform="matrix(-1.836970e-16 1 -1 -1.836970e-16 565.6321 89.9385)" style="fill:#F0F0F0;" width="109.225" height="325.694"/>
			<path style="fill:#F5F5F5;" d="M387.441,317.323v-35.229c0-1.504-1.22-2.724-2.724-2.724H90.976c-1.505,0-2.724,1.22-2.724,2.724
				v35.229c0,1.505,1.22,2.724,2.724,2.724h293.741C386.222,320.047,387.441,318.828,387.441,317.323z"/>
			<path style="fill:#F5F5F5;" d="M387.441,372.919v-45.569c0-1.504-1.22-2.724-2.724-2.724H90.976c-1.505,0-2.724,1.22-2.724,2.724
				v45.569c0,1.505,1.22,2.724,2.724,2.724h293.741C386.222,375.643,387.441,374.424,387.441,372.919z"/>
			<path style="fill:#F0F0F0;" d="M327.549,278.694L327.549,278.694H148.145l0,0c0,2.922,2.368,5.29,5.29,5.29h168.824
				C325.18,283.984,327.549,281.616,327.549,278.694z"/>
			<path style="fill:#F0F0F0;" d="M327.549,323.951L327.549,323.951H148.145l0,0c0,2.921,2.368,5.29,5.29,5.29h168.824
				C325.18,329.241,327.549,326.872,327.549,323.951z"/>
			
				<rect x="358.234" y="315.632" transform="matrix(-1.836970e-16 1 -1 -1.836970e-16 740.6321 -85.0615)" style="fill:#E6E6E6;" width="109.225" height="24.306"/>
			
				<rect x="234.48" y="106.96" transform="matrix(6.123234e-17 -1 1 6.123234e-17 -31.9595 507.6531)" style="fill:#FAFAFA;" width="6.733" height="325.694"/>
			<path style="fill:#F5F5F5;" d="M372.056,256.69c0,5.385,4.365,9.75,9.75,9.75c5.385,0,9.75-4.365,9.75-9.75H372.056z"/>
			<path style="fill:#F5F5F5;" d="M346.066,256.69c0,5.385,4.365,9.75,9.75,9.75c5.385,0,9.75-4.365,9.75-9.75H346.066z"/>
			<path style="fill:#F5F5F5;" d="M78.502,263.146c0,1.819,8.108,3.294,18.11,3.294s18.109-1.475,18.109-3.294H78.502z"/>
			<path style="fill:#F5F5F5;" d="M78.502,261.424c0,1.819,8.108,3.294,18.11,3.294s18.109-1.475,18.109-3.294H78.502z"/>
			
				<rect x="409.48" y="257.653" transform="matrix(6.123234e-17 -1 1 6.123234e-17 143.0405 682.6531)" style="fill:#E0E0E0;" width="6.733" height="24.306"/>
		</g>
		<g>
			<g>
				<rect x="354.959" y="75.96" style="fill:#EBEBEB;" width="59.442" height="77.447"/>
				<rect x="352.193" y="75.96" style="fill:#F5F5F5;" width="59.442" height="77.447"/>
				<rect x="360.179" y="86.366" style="fill:#FFFFFF;" width="43.469" height="56.636"/>
			</g>
			<g>
				
					<rect x="296.16" y="159.214" transform="matrix(6.123234e-17 -1 1 6.123234e-17 119.7095 532.0522)" style="fill:#EBEBEB;" width="59.442" height="93.915"/>
				
					<rect x="293.3" y="159.214" transform="matrix(6.123234e-17 -1 1 6.123234e-17 116.8499 529.1926)" style="fill:#F5F5F5;" width="59.442" height="93.915"/>
				
					<rect x="301.287" y="169.619" transform="matrix(6.123234e-17 -1 1 6.123234e-17 116.85 529.1926)" style="fill:#FFFFFF;" width="43.469" height="73.104"/>
			</g>
			<g>
				<rect x="398.837" y="169.343" style="fill:#EBEBEB;" width="48.333" height="47.624"/>
				<rect x="396.071" y="169.343" style="fill:#F5F5F5;" width="48.333" height="47.624"/>
				<rect x="404.057" y="179.749" style="fill:#FFFFFF;" width="32.36" height="26.813"/>
			</g>
			<g>
				<rect x="291.265" y="112.39" style="fill:#EBEBEB;" width="48.333" height="47.624"/>
				<rect x="288.499" y="112.39" style="fill:#F5F5F5;" width="48.333" height="47.624"/>
				<rect x="296.485" y="122.796" style="fill:#FFFFFF;" width="32.36" height="26.813"/>
			</g>
		</g>
	</g>
</g>
<g id="Background_Simple" style="display:none;">
	<g style="display:inline;">
		<path style="fill:#407BFF;" d="M266.451,274.256c-40.939-44.024-97.401-13.525-140.349-28.127
			C73.546,228.26,49.47,168.808,79.874,138.643c26.071-25.865,63.26-3.444,99.396-3.184c49.347,0.354,80.55-24.651,136.408-5.358
			c107.923,37.276,88.191,173.33,38.448,221.898c-17.16,16.755-32.933,29.772-61.561,3.485
			C266.593,331.636,283.313,292.389,266.451,274.256z"/>
		<path style="opacity:0.9;fill:#FFFFFF;" d="M266.451,274.256c-40.939-44.024-97.401-13.525-140.349-28.127
			C73.546,228.26,49.47,168.808,79.874,138.643c26.071-25.865,63.26-3.444,99.396-3.184c49.347,0.354,80.55-24.651,136.408-5.358
			c107.923,37.276,88.191,173.33,38.448,221.898c-17.16,16.755-32.933,29.772-61.561,3.485
			C266.593,331.636,283.313,292.389,266.451,274.256z"/>
	</g>
</g>
<g id="Shadow_1_">
	<ellipse id="_x3C_Path_x3E__345_" style="fill:#F5F5F5;" cx="250" cy="416.238" rx="193.889" ry="11.323"/>
</g>
<g id="Smartphone">
	<g>
		<rect x="315.748" y="128.081" style="fill:#407BFF;" width="1.039" height="6.583"/>
		<path style="fill:#407BFF;" d="M316.787,122.731h-1.039c0-7.97-6.484-14.454-14.455-14.454v-1.039
			C309.837,107.238,316.787,114.188,316.787,122.731z"/>
		<path style="fill:#407BFF;" d="M301.294,110.875H163.27c-6.521,0-11.856,5.335-11.856,11.856v281.51
			c0,6.521,5.335,11.856,11.856,11.856h138.024c6.521,0,11.856-5.335,11.856-11.856v-281.51
			C313.15,116.211,307.815,110.875,301.294,110.875z"/>
		<path style="opacity:0.95;fill:#FFFFFF;" d="M162.465,411.531c-4.019,0-7.289-3.27-7.289-7.289V122.731
			c0-4.019,3.27-7.289,7.289-7.289h138.023c4.019,0,7.289,3.27,7.289,7.289v281.511c0,4.019-3.27,7.289-7.289,7.289H162.465z"/>
		<circle style="fill:#407BFF;" cx="231.476" cy="391.977" r="8.246"/>
		<path style="fill:#407BFF;" d="M225.173,114.608c0,3.761,3.049,6.811,6.811,6.811c3.761,0,6.811-3.049,6.811-6.811H225.173z"/>
		<g>
			<path style="opacity:0.7;fill:#407BFF;" d="M276.509,144.165h-89.05c-7.535,0-13.7,6.165-13.7,13.7v9.133
				c0,7.535,6.165,13.7,13.7,13.7h89.05l13.7,8.118v-30.952C290.208,150.33,284.044,144.165,276.509,144.165z"/>
			<rect x="189.94" y="157.245" style="fill:#FFFFFF;" width="84.088" height="2.283"/>
			<rect x="206.121" y="165.335" style="fill:#FFFFFF;" width="67.907" height="2.283"/>
		</g>
		<g>
			<path style="opacity:0.15;fill:#407BFF;" d="M187.459,204.997h89.05c7.535,0,13.7,6.165,13.7,13.7v9.133
				c0,7.535-6.165,13.7-13.7,13.7h-89.05l-13.7,8.118v-30.952C173.759,211.162,179.924,204.997,187.459,204.997z"/>
			<rect x="189.94" y="218.078" style="opacity:0.5;fill:#407BFF;" width="84.088" height="2.283"/>
			<rect x="189.94" y="226.168" style="opacity:0.5;fill:#407BFF;" width="39" height="2.283"/>
			<rect x="235.028" y="226.168" style="opacity:0.5;fill:#407BFF;" width="15.856" height="2.283"/>
		</g>
		<g>
			<path style="opacity:0.7;fill:#407BFF;" d="M276.509,265.83h-89.05c-7.535,0-13.7,6.165-13.7,13.7v9.133
				c0,7.535,6.165,13.7,13.7,13.7h89.05l13.7,8.118V279.53C290.208,271.995,284.044,265.83,276.509,265.83z"/>
			<rect x="189.94" y="278.91" style="fill:#FFFFFF;" width="84.088" height="2.283"/>
			<rect x="206.121" y="287.001" style="fill:#FFFFFF;" width="67.907" height="2.283"/>
		</g>
		<g>
			<g>
				<path style="opacity:0.15;fill:#407BFF;" d="M187.459,326.663h34.631c7.535,0,13.7,6.165,13.7,13.7v9.133
					c0,7.535-6.165,13.7-13.7,13.7h-34.631l-13.7,8.118v-30.952C173.759,332.828,179.924,326.663,187.459,326.663z"/>
			</g>
			<path style="opacity:0.5;fill:#407BFF;" d="M194.402,344.93c0,2.234-1.811,4.045-4.045,4.045s-4.045-1.811-4.045-4.045
				c0-2.234,1.811-4.045,4.045-4.045S194.402,342.696,194.402,344.93z"/>
			<circle style="opacity:0.5;fill:#407BFF;" cx="202.492" cy="341.694" r="4.045"/>
			<path style="opacity:0.5;fill:#407BFF;" d="M218.673,349.784c0,2.234-1.811,4.045-4.045,4.045s-4.045-1.811-4.045-4.045
				c0-2.234,1.811-4.045,4.045-4.045S218.673,347.55,218.673,349.784z"/>
		</g>
	</g>
</g>
<g id="Character_2">
	<g>
		<g>
			<g>
				<path style="fill:#FFC3BD;" d="M344.33,335.198c1.1,2.188,2.084,4.392,3.108,6.596c1.012,2.206,1.977,4.434,2.925,6.675
					c0.94,2.245,1.88,4.491,2.76,6.78c0.895,2.285,1.771,4.577,2.581,6.971l-3.586-3.371c1.738,0.665,4.037,1.037,6.478,1.122
					c2.444,0.076,5.045-0.052,7.667-0.354c2.632-0.276,5.298-0.714,7.975-1.216c2.659-0.502,5.405-1.117,7.988-1.726l2.368,5.753
					c-2.67,1.483-5.29,2.668-8.051,3.776c-2.745,1.098-5.569,2.04-8.492,2.821c-2.931,0.746-5.954,1.369-9.164,1.599
					c-3.199,0.253-6.618,0.17-10.29-0.842l-2.344-0.646l-1.243-2.725c-1.918-4.205-3.992-8.534-6.036-12.843
					c-1.02-2.161-2.048-4.322-3.045-6.5c-0.985-2.178-2.023-4.352-2.968-6.53L344.33,335.198z"/>
			</g>
			<path style="fill:#FFC3BD;" d="M379.013,358.46l3.93-3.842l6.236,6.755c0,0-2.262,3.943-7.875,1.648L379.013,358.46z"/>
			<polygon style="fill:#FFC3BD;" points="388.858,352.078 392.298,357.693 389.18,361.374 382.943,354.619 			"/>
			<path style="fill:#263238;" d="M326.671,326.206c8.032-3.084,14.203,1.524,24.309,14.288l-11.836,12.167
				C339.144,352.662,311.074,332.194,326.671,326.206z"/>
			<path style="opacity:0.2;" d="M341.694,339.41c-3.783-2.453-7.078-1.757-9.853,0.52c1.05,3.887,3.742,8.345,6.33,11.993
				c0.613,0.478,0.977,0.738,0.977,0.738l6.6-6.787C345.248,342.892,343.783,340.751,341.694,339.41z"/>
			<g>
				<polygon style="fill:#FFC3BD;" points="387.6,411.042 397.175,409.931 396.382,390.285 386.808,391.395 				"/>
				<path style="fill:#263238;" d="M397.261,405.798l-10.787,0.151c-0.35,0.005-0.638,0.28-0.693,0.661l-1.22,8.488
					c-0.126,0.88,0.54,1.702,1.348,1.675c3.355-0.113,4.894-0.367,9.124-0.429c2.603-0.038,10.469,0.149,14.063,0.097
					c3.516-0.051,3.844-4.011,2.352-4.347c-6.688-1.509-10.535-3.651-12.765-5.731C398.282,405.988,397.773,405.79,397.261,405.798z
					"/>
				<path style="fill:#407BFF;" d="M399.549,403.295c0.279-0.111,0.59-0.074,0.926,0.113c0.285,0.158,0.368,0.388,0.387,0.552
					c0.122,1.041-2.044,2.795-2.292,2.992c-0.056,0.045-0.136,0.049-0.202,0.01c-0.066-0.039-0.105-0.114-0.1-0.191
					c0.072-1.078,0.32-2.957,1.177-3.427C399.479,403.325,399.513,403.309,399.549,403.295z M398.676,406.356
					c0.846-0.729,1.883-1.824,1.818-2.372c-0.008-0.069-0.035-0.158-0.178-0.237c-0.264-0.147-0.49-0.164-0.685-0.058
					C399.17,403.943,398.822,404.926,398.676,406.356z"/>
				<path style="fill:#407BFF;" d="M399.448,406.012c0.824-0.329,1.823-0.52,2.323-0.205c0.151,0.096,0.392,0.326,0.308,0.8
					c-0.053,0.301-0.211,0.528-0.468,0.675c-0.967,0.549-3.121-0.27-3.213-0.305c-0.063-0.024-0.111-0.081-0.125-0.149
					c-0.015-0.068,0.006-0.137,0.054-0.181C398.555,406.437,398.972,406.202,399.448,406.012z M401.313,406.99
					c0.037-0.015,0.073-0.032,0.105-0.051c0.165-0.094,0.262-0.233,0.296-0.424c0.043-0.242-0.042-0.33-0.121-0.38
					c-0.481-0.303-1.953,0.095-2.74,0.601C399.541,406.958,400.698,407.235,401.313,406.99z"/>
				<polygon style="opacity:0.2;" points="386.806,391.401 396.384,390.29 396.788,400.417 387.167,400.462 				"/>
				<g>
					<path style="fill:#407BFF;" d="M339.841,379.995c0,0,24.856-23.124,40.965-23.471c11.785-0.253,20.208,38.703,20.208,38.703
						l-13.966,0.272c0,0-2.457-13.776-11.613-17.582c-13.214,19.842-67.102,59.049-61.968,16.549
						C321.427,391.458,339.841,379.995,339.841,379.995z"/>
					<path style="opacity:0.2;" d="M339.841,379.995c0,0,24.856-23.124,40.965-23.471c11.785-0.253,20.208,38.703,20.208,38.703
						l-13.966,0.272c0,0-2.457-13.776-11.613-17.582c-13.214,19.842-67.102,59.049-61.968,16.549
						C321.427,391.458,339.841,379.995,339.841,379.995z"/>
				</g>
				<polygon style="fill:#263238;" points="400.985,397.173 384.53,398.75 384.581,392.75 401.994,390.682 				"/>
			</g>
			<path style="fill:#263238;" d="M307.202,395.936c0,0-10.692-20.873-11.981-54.506c-0.304-7.923,6.829-15.388,14.976-15.813
				c6.866-0.358,14.12-0.449,19.97-0.425c5.874,0.023,10.382,3.922,11.053,9.574c1.482,12.487,1.736,31.429,9.395,54.014
				L307.202,395.936z"/>
			<path style="opacity:0.2;" d="M300.215,341.605c5.882-6.658,7.911-4.537,8.794-3.737c8.163,7.397-3.82,30.4-6.219,33.793
				c-1.485-7.459-2.659-16.213-3.04-26.063C299.702,344.239,299.862,342.901,300.215,341.605z"/>
			<path style="fill:#FFC3BD;" d="M318.158,305.633c-0.658,6.126-2.28,15.539-6.452,19.911c3.283,3.082,8.62,6.124,16.211,7.394
				c3.924-1.622,4.445-5.23,2.546-7.739c-6.702-1.171-6.628-3.072-4.091-7.341L318.158,305.633z"/>
			<path style="opacity:0.2;" d="M321.506,310.62l4.863,7.231c-0.604,1.01-1.237,2.193-1.488,3.209
				c-2.379-0.962-5.024-4.643-4.484-7.316C320.667,312.412,321.107,311.175,321.506,310.62z"/>
			<path style="fill:#263238;" d="M335.719,294.33c3.928,4.171,12.192,4.192,8.644-0.752
				C340.816,288.634,332.66,291.081,335.719,294.33z"/>
			<path style="fill:#FFC3BD;" d="M319.792,293.884c-2.192,7.954-3.87,12.479-1.383,18.005c3.742,8.313,14.377,8.52,18.853,1.494
				c4.028-6.323,6.936-18.269,0.527-24.344C331.474,283.053,321.983,285.929,319.792,293.884z"/>
			<g>
				<path style="fill:#FFC3BD;" d="M318.017,301.297c0.982-0.173,5.941-1.676,8.352-3.992c2.716-2.609,2.734-5.131,1.983-6.285
					c-0.751-1.155-6.456-3.361-9.123-2.849c-4.216,0.808-3.176,8.277-3.118,10.298C316.169,300.489,318.017,301.297,318.017,301.297
					z"/>
				<path style="opacity:0.7;fill:#263238;" d="M318.017,301.297c0.982-0.173,5.941-1.676,8.352-3.992
					c2.716-2.609,2.734-5.131,1.983-6.285c-0.751-1.155-6.456-3.361-9.123-2.849c-4.216,0.808-3.176,8.277-3.118,10.298
					C316.169,300.489,318.017,301.297,318.017,301.297z"/>
			</g>
			<path style="fill:#FFC3BD;" d="M313.807,301.852c0.819,1.854,2.389,3.193,3.914,3.814c2.295,0.935,3.606-1.039,3.106-3.344
				c-0.45-2.075-2.186-5.062-4.556-5.017C313.937,297.35,312.87,299.732,313.807,301.852z"/>
			<path style="fill:#263238;" d="M321.332,290.55c10.195,2.183,17.444,7.924,22.27,4.471c3.413-2.442,1.172-6.892-2.74-10.112
				c-3.338-2.747-7.958-3.599-9.398-5.854c-0.687,2.47,1.577,4.003,1.577,4.003s-9.215-1.417-11.763-3.819
				c-0.612,1.432,1.755,4.19,1.755,4.19s-2.606,2.469-10.056-0.32C313.47,285.502,315.535,289.308,321.332,290.55z"/>
			<path style="fill:#263238;" d="M341.591,295.83c-0.133,0-0.267-0.004-0.403-0.014l0.034-0.518
				c1.973,0.125,3.566-0.792,4.25-2.467c0.694-1.7,0.393-4.276-1.845-6.201c-0.801-0.689-1.803-1.191-2.863-1.724
				c-2.375-1.191-5.065-2.541-6.363-6.47l0.493-0.162c1.23,3.723,3.708,4.965,6.103,6.167c1.09,0.547,2.12,1.063,2.969,1.794
				c2.434,2.094,2.752,4.92,1.987,6.793C345.227,294.803,343.614,295.83,341.591,295.83z"/>
			<path style="fill:#263238;" d="M331.348,301.652c-0.217,0.632-0.063,1.277,0.343,1.439c0.406,0.162,0.911-0.219,1.127-0.851
				c0.217-0.632,0.063-1.277-0.343-1.439C332.07,300.638,331.565,301.02,331.348,301.652z"/>
			<path style="fill:#263238;" d="M338.893,303.925c-0.217,0.632-0.063,1.277,0.343,1.439c0.406,0.162,0.911-0.219,1.127-0.851
				c0.217-0.632,0.063-1.277-0.343-1.439C339.614,302.912,339.109,303.293,338.893,303.925z"/>
			<path style="fill:#ED847E;" d="M336.121,303.164c0,0,0.163,4.213,1.115,6.595c-1.457,0.605-3.162-0.619-3.162-0.619
				L336.121,303.164z"/>
			<path style="fill:#263238;" d="M329.989,310.657c-2.252-1.269-2.776-3.377-2.799-3.475c-0.026-0.108,0.038-0.213,0.141-0.236
				c0.103-0.022,0.208,0.047,0.234,0.155c0.006,0.025,0.623,2.476,3.341,3.562c0.1,0.041,0.154,0.156,0.119,0.259
				c-0.035,0.103-0.145,0.153-0.246,0.113C330.494,310.921,330.232,310.794,329.989,310.657z"/>
			<path style="fill:#263238;" d="M329.296,297.514c-0.057-0.032-0.108-0.079-0.146-0.14c-0.118-0.188-0.07-0.434,0.107-0.549
				c1.779-1.152,3.426-0.379,3.495-0.346c0.197,0.095,0.287,0.333,0.202,0.532c-0.084,0.198-0.31,0.283-0.506,0.19l0,0
				c-0.054-0.025-1.344-0.614-2.764,0.305C329.565,297.584,329.416,297.582,329.296,297.514z"/>
			<path style="fill:#263238;" d="M341.458,302.059c-0.12-0.041-0.221-0.14-0.261-0.274c-0.51-1.7-1.841-2.171-1.897-2.19
				c-0.204-0.07-0.323-0.295-0.264-0.503c0.059-0.209,0.27-0.323,0.475-0.255c0.074,0.026,1.784,0.61,2.424,2.74
				c0.064,0.213-0.049,0.432-0.253,0.49C341.606,302.087,341.529,302.083,341.458,302.059z"/>
			<g>
				<polygon style="fill:#FFC3BD;" points="420.835,415.708 426.533,407.415 411.178,394.046 405.479,402.339 				"/>
				<path style="fill:#263238;" d="M422.593,403.498l-6.694,8.334c-0.225,0.279-0.218,0.685,0.016,0.976l5.203,6.482
					c0.54,0.672,1.555,0.681,2.062,0.026c2.106-2.72,3.515-4.809,6.228-8.187c1.669-2.078,6.925-8.161,9.23-11.03
					c2.254-2.806-0.331-5.64-1.54-4.682c-5.423,4.294-10.255,6.921-13.178,7.327C423.392,402.816,422.922,403.089,422.593,403.498z"
					/>
				<path style="fill:#407BFF;" d="M422.149,400.079c0.078-0.291,0.294-0.517,0.644-0.675c0.297-0.134,0.531-0.063,0.674,0.02
					c0.908,0.524,1.019,3.31,1.029,3.626c0.002,0.071-0.042,0.139-0.113,0.168c-0.071,0.029-0.154,0.016-0.213-0.034
					c-0.822-0.702-2.179-2.024-2.044-2.991C422.132,400.153,422.139,400.116,422.149,400.079z M424.082,402.608
					c-0.079-1.114-0.337-2.599-0.815-2.875c-0.06-0.035-0.148-0.066-0.297,0.001c-0.276,0.124-0.424,0.295-0.456,0.514
					C422.442,400.77,423.022,401.637,424.082,402.608z"/>
				<path style="fill:#407BFF;" d="M424.267,401.783c0.229-0.857,0.672-1.773,1.224-1.985c0.167-0.064,0.496-0.119,0.826,0.231
					c0.21,0.222,0.297,0.484,0.261,0.779c-0.138,1.103-2.082,2.342-2.165,2.394c-0.057,0.036-0.131,0.04-0.194,0.012
					c-0.063-0.029-0.106-0.087-0.113-0.151C424.074,402.754,424.135,402.278,424.267,401.783z M426.166,400.872
					c0.01-0.039,0.018-0.077,0.022-0.115c0.023-0.189-0.03-0.35-0.163-0.491c-0.168-0.179-0.29-0.163-0.376-0.13
					c-0.531,0.204-1.091,1.622-1.155,2.556C425.082,402.275,425.995,401.512,426.166,400.872z"/>
				<polygon style="opacity:0.2;" points="405.482,402.344 411.183,394.048 419.095,400.944 412.562,408.514 				"/>
				<path style="fill:#407BFF;" d="M322.81,392.895c0,0,43.703-44.407,63.366-25.405c12.252,11.84,30.255,28.152,30.255,28.152
					l-10.472,10.145c0,0-26.418-14.047-33.294-21.808c-36.108,40.359-68.368,43.123-65.463,11.958
					C315.615,393.711,322.81,392.895,322.81,392.895z"/>
				<polygon style="fill:#263238;" points="419.536,395.734 408.081,410.134 403.218,406.865 414.925,391.576 				"/>
			</g>
			<g>
				<path style="fill:#FFC3BD;" d="M307.346,338.608l0.862,18.205c0.163,3.02,0.349,6.03,0.583,8.977
					c0.118,1.473,0.275,2.923,0.444,4.314c0.082,0.695,0.176,1.378,0.283,1.996c0.099,0.632,0.231,1.201,0.315,1.548
					c0.016,0.053,0.028,0.109,0.035,0.167c-0.028-0.083-0.079-0.117-0.138-0.22c-0.126-0.154-0.314-0.387-0.538-0.523
					c-0.212-0.155-0.418-0.237-0.545-0.264c-0.105-0.034-0.17-0.009-0.115,0.011c0.184,0.132,1.321,0.106,2.448-0.158
					c2.342-0.525,5.066-1.546,7.693-2.733c2.663-1.171,5.329-2.52,7.99-3.917c2.665-1.373,5.337-2.889,7.932-4.344l3.739,4.972
					c-4.727,4.33-9.643,8.218-15.208,11.672c-1.397,0.853-2.838,1.67-4.359,2.441c-1.52,0.775-3.122,1.489-4.929,2.077
					c-0.906,0.294-1.865,0.559-2.943,0.748c-1.079,0.183-2.281,0.309-3.736,0.172c-0.713-0.06-1.529-0.228-2.361-0.512
					c-0.849-0.3-1.738-0.751-2.56-1.378c-0.808-0.633-1.548-1.421-2.064-2.243c-0.284-0.417-0.473-0.816-0.686-1.236l-0.378-0.913
					c-0.412-1.113-0.67-2.038-0.886-2.914c-0.224-0.888-0.402-1.723-0.566-2.549c-0.325-1.652-0.572-3.26-0.798-4.85
					c-0.458-3.18-0.791-6.316-1.07-9.446c-0.559-6.266-0.884-12.45-0.997-18.741L307.346,338.608z"/>
				<path style="fill:#263238;" d="M304.275,326.875c-4.71,0.538-11.758,4.974-12.01,25.786l20.207-1.594
					C312.472,351.068,321.966,324.854,304.275,326.875z"/>
				<path style="fill:#407BFF;" d="M351.551,351.151l-7.497,0.492c-0.838,0.055-1.676,0.811-1.861,1.68l-3.51,16.476
					c-0.185,0.869,0.349,1.535,1.188,1.48l7.497-0.492c0.838-0.055,1.676-0.811,1.861-1.68l3.51-16.476
					C352.924,351.762,352.39,351.096,351.551,351.151z"/>
				<path style="fill:#FFC3BD;" d="M335.172,361.288l6.212-2.155l-1.534,9.73c0,0-6.918,1.522-7.489-2.199l1.004-3.317
					C333.659,362.375,334.368,361.567,335.172,361.288z"/>
				<polygon style="fill:#FFC3BD;" points="348.48,359.948 345.789,368.607 339.85,368.863 341.385,359.132 				"/>
			</g>
		</g>
	</g>
</g>
<g id="Character_1">
	<g>
		<path style="fill:#263238;" d="M133.375,155.954c-4.873-11.331,21.738-23.192,29.253-5.553c12.77,5.553-3.553,29.154,0.143,33.153
			c3.695,3.999,6.467-0.851,6.467-0.851s3.728,9.933-5.774,17.899c-8.529,7.15-34.153,9.088-34.213-4.994
			C129.173,177.333,139.782,170.851,133.375,155.954z"/>
		<polygon style="fill:#FF8B7B;" points="157.848,393.862 150.689,398.029 133.5,378.375 142.42,370.333 		"/>
		<path style="fill:#263238;" d="M149.873,396.226l7.383-5.667c0.269-0.206,0.618-0.199,0.84,0.017l4.948,4.82
			c0.513,0.5,0.395,1.436-0.232,1.902c-2.605,1.934-3.952,2.745-7.199,5.237c-1.997,1.533-5.983,4.898-8.741,7.015
			c-2.698,2.071-4.823-0.322-3.848-1.435c4.371-4.989,5.324-7.974,6.035-10.669C149.187,396.961,149.48,396.527,149.873,396.226z"/>
		<path style="fill:#407BFF;" d="M148.213,399.194c-0.653,0.501-1.327,0.87-1.878,0.844c-0.35-0.016-0.624-0.182-0.814-0.493
			c-0.114-0.186-0.123-0.39-0.027-0.59c0.495-1.031,4.055-1.79,4.459-1.873c0.08-0.017,0.158,0.018,0.195,0.087
			c0.037,0.068,0.024,0.156-0.032,0.217C149.636,397.919,148.937,398.639,148.213,399.194z M146.086,398.82
			c-0.12,0.092-0.207,0.185-0.251,0.276c-0.039,0.082-0.035,0.155,0.015,0.237c0.129,0.211,0.302,0.319,0.53,0.329
			c0.651,0.03,1.777-0.742,3.062-2.086C148.237,397.863,146.709,398.343,146.086,398.82z"/>
		<path style="fill:#407BFF;" d="M150.088,397.413c-0.022,0.017-0.047,0.029-0.074,0.036c-1.032,0.27-3.578,0.133-3.98-0.657
			c-0.095-0.187-0.125-0.488,0.276-0.86c0.301-0.274,0.65-0.413,1.051-0.41c1.31,0.01,2.705,1.549,2.763,1.614
			c0.043,0.048,0.056,0.117,0.033,0.181C150.144,397.355,150.119,397.389,150.088,397.413z M146.65,396.121
			c-0.031,0.024-0.061,0.049-0.09,0.077c-0.264,0.245-0.203,0.366-0.183,0.405c0.241,0.474,2.077,0.71,3.215,0.55
			c-0.438-0.423-1.403-1.248-2.262-1.255C147.071,395.897,146.847,395.97,146.65,396.121z"/>
		<path style="fill:#FF8B7B;" d="M131.823,197.081c-0.474,2.148-1.012,4.093-1.607,6.102c-0.588,1.992-1.215,3.97-1.935,5.922
			c-1.412,3.908-2.965,7.784-4.862,11.542l-1.469,2.803c-0.531,0.921-1.047,1.843-1.603,2.751l-0.86,1.353
			c-0.302,0.46-0.529,0.869-0.939,1.406c-0.199,0.263-0.398,0.524-0.665,0.829c-0.278,0.309-0.536,0.613-1.141,1.077
			c-0.391,0.25-0.675,0.534-1.711,0.807c-0.188,0.051-0.567,0.101-0.882,0.099c-0.302,0.007-0.694-0.043-1.068-0.151
			c-0.724-0.193-1.381-0.673-1.714-1.04c-0.708-0.78-0.854-1.355-0.97-1.697c-0.116-0.393-0.152-0.659-0.186-0.916
			c-0.092-0.95-0.032-1.548,0.031-2.168c0.071-0.601,0.164-1.158,0.266-1.701c0.199-1.083,0.465-2.109,0.737-3.124
			c0.563-2.027,1.222-3.969,2.005-5.919l3.946,0.88l-0.263,5.953c-0.047,0.975-0.066,1.944-0.076,2.865
			c-0.001,0.459,0.01,0.906,0.04,1.312c0.027,0.386,0.076,0.8,0.128,0.848c0.007-0.009,0.019-0.026-0.018-0.18
			c-0.046-0.102-0.078-0.443-0.617-1.038c-0.249-0.275-0.796-0.681-1.399-0.844c-0.313-0.093-0.644-0.123-0.883-0.127
			c-0.253-0.008-0.567,0.049-0.696,0.075c-0.786,0.219-0.863,0.348-1.048,0.455c-0.208,0.151-0.134,0.071-0.094-0.009l0.228-0.389
			l1.342-2.404c0.452-0.836,0.863-1.703,1.304-2.547l1.227-2.606c1.556-3.526,2.972-7.155,4.199-10.86
			c0.616-1.851,1.193-3.719,1.762-5.587c0.553-1.854,1.078-3.797,1.532-5.57L131.823,197.081z"/>
		<path style="fill:#FF8B7B;" d="M128.404,186.671c-2.908,0.47-7.502,18.9-7.502,18.9l6.685,5.147c0,0,6.717-13.318,6.999-19.306
			C134.789,187.067,130.589,186.318,128.404,186.671z"/>
		<path style="fill:#FF8B7B;" d="M117.911,216.865l-1.131-9.167l-5.248,7.702c0,0,0.673,3.167,3.91,3.69L117.911,216.865z"/>
		<polygon style="fill:#FF8B7B;" points="154.602,409.409 146.604,409.684 145.069,381.757 156.173,381.914 		"/>
		<path style="fill:#263238;" d="M146.057,407.134l8.972-0.064c0.327-0.002,0.576,0.223,0.6,0.541l0.541,7.088
			c0.056,0.735-0.624,1.436-1.377,1.429c-3.124-0.032-4.619-0.204-8.565-0.177c-2.427,0.017-5.991,0.295-9.343,0.318
			c-3.279,0.023-3.306-3.288-1.89-3.598c6.35-1.39,7.464-3.252,9.693-5.037C145.09,407.312,145.579,407.137,146.057,407.134z"/>
		<path style="fill:#407BFF;" d="M127.912,186.615c0,0-3.98,1.001-4.038,48.325c12.73,1.126,25.887,2.29,32.081,2.838
			c1.601-13.191,2.906-21.297,13.538-47.718c0,0-6.482-2.067-13.329-3.012c-5.356-0.739-9.751-1.304-14.568-1.288
			C135.245,185.781,127.912,186.615,127.912,186.615z"/>
		<path style="opacity:0.2;" d="M163.173,196.101l1.705,5.829c-1.338,3.608-2.451,6.797-3.381,9.668
			C160.523,206.211,161.878,199.177,163.173,196.101z"/>
		<polygon style="fill:#FF8B7B;" points="116.78,207.698 111.532,215.4 117.906,215.027 121.312,207.992 		"/>
		<path style="fill:#263238;" d="M120.106,225.405l6.048-0.088c0.838-0.012,1.475-0.755,1.36-1.585l-1.871-13.452
			c-0.097-0.696-0.697-1.211-1.4-1.201l-6.048,0.088c-0.838,0.012-1.475,0.755-1.36,1.585l1.871,13.452
			C118.803,224.9,119.403,225.415,120.106,225.405z"/>
		<path style="fill:#FF8B7B;" d="M157.408,170.408c-1.687,4.637-4.012,13.201-1.245,16.639c0,0-5.977,5.413-15.905,9.652
			c-3.344-7.823,1.337-10.939,1.337-10.939c5.431-0.794,5.932-4.71,5.618-8.456L157.408,170.408z"/>
		<path style="fill:#263238;" d="M135.431,165.092c-0.838,13.886-9.195,17.867-7.23,24.971c2.768,10.008,14.07,2.165,14.07,2.165
			s-6.149,1.992-6.539-2.858c-0.319-3.972,13.873-3.378,9.933-12.789C143.142,170.553,135.431,165.092,135.431,165.092z"/>
		<path style="opacity:0.2;" d="M154.495,173.921l-7.277,3.378c0.077,0.887,0.104,1.782,0.025,2.643
			c1.52,0.134,5.454-1.016,6.945-3.464C154.758,175.544,154.586,174.425,154.495,173.921z"/>
		<path style="fill:#FF8B7B;" d="M158.669,157.345c0.732,7.888,1.21,11.211-2.115,15.834c-5.001,6.953-14.849,6.126-17.923-1.384
			c-2.767-6.76-3.498-18.524,3.668-22.819C149.359,144.744,157.937,149.457,158.669,157.345z"/>
		<path style="fill:#263238;" d="M156.927,149.445c-6.219-4.273-11.389,3.921-0.346,11.899
			C167.623,169.321,163.986,154.295,156.927,149.445z"/>
		<path style="fill:#263238;" d="M153.617,147.15c2.568,2.309-12.731,10.826-21.046,8.011c-8.314-2.815-1.646-9.18,1.386-9.96
			c-2.598,2.512,1.949,6.322,4.157,3.941C140.322,146.76,148.464,142.516,153.617,147.15z"/>
		<g>
			<path style="fill:#407BFF;" d="M123.873,234.939c0,0-16.93,71.692-15.448,89.789c1.732,21.161,24.875,55.267,24.875,55.267
				l10.631-9.643c0,0-10.556-27.945-18.362-46.144c2.504-18.195,24.6-69.622,24.6-86.943L123.873,234.939z"/>
			<path style="opacity:0.6;" d="M123.873,234.939c0,0-16.93,71.692-15.448,89.789c1.732,21.161,24.875,55.267,24.875,55.267
				l10.631-9.643c0,0-10.556-27.945-18.362-46.144c2.504-18.195,24.6-69.622,24.6-86.943L123.873,234.939z"/>
		</g>
		<polygon style="fill:#407BFF;" points="145.889,371.789 133.331,381.155 130.106,378.704 143.887,367.833 		"/>
		<path style="opacity:0.2;" d="M136.398,266.473c-9.323,12.919-9.78,36.677-9.198,50.021c3.201-12.264,9.915-30.576,15.257-47.07
			C142.332,263.085,140.762,260.424,136.398,266.473z"/>
		<g>
			<path style="fill:#407BFF;" d="M129.892,234.998c0,0,6.194,61.915,8.265,82.812c2.46,24.81,6.071,64.6,6.071,64.6l11.945-0.496
				c0,0,2.619-33.734,0.672-55.963c0.357-29.506,4.706-69.614-0.891-88.174L129.892,234.998z"/>
		</g>
		<path style="opacity:0.6;" d="M129.892,234.998c0,0,6.194,61.915,8.265,82.812c2.46,24.81,6.071,64.6,6.071,64.6l11.945-0.496
			c0,0,2.619-33.734,0.672-55.963c0.357-29.506,4.706-69.614-0.891-88.174L129.892,234.998z"/>
		<polygon style="fill:#407BFF;" points="157.076,384.097 143.378,383.711 142.42,379.401 157.917,378.971 		"/>
		<path style="fill:#263238;" d="M146.408,161.697c0.099,0.636-0.159,1.204-0.574,1.269c-0.416,0.064-0.833-0.399-0.932-1.035
			c-0.099-0.636,0.159-1.204,0.574-1.269C145.892,160.597,146.309,161.061,146.408,161.697z"/>
		<path style="fill:#263238;" d="M139.217,162.812c0.099,0.636-0.159,1.204-0.574,1.269c-0.416,0.064-0.833-0.399-0.932-1.035
			c-0.099-0.636,0.159-1.204,0.574-1.269C138.701,161.712,139.118,162.176,139.217,162.812z"/>
		<path style="fill:#263238;" d="M138.474,161.784l-1.596-0.204C136.878,161.58,137.847,162.652,138.474,161.784z"/>
		<path style="fill:#FF5652;" d="M141.576,163.437c0,0-0.655,2.906-1.639,4.412c0.962,0.654,2.334,0.074,2.334,0.074
			L141.576,163.437z"/>
		<path style="fill:#263238;" d="M146.41,169.668c-0.321,0.11-0.671,0.198-1.053,0.257c-0.103,0.016-0.2-0.055-0.216-0.158
			c-0.016-0.103,0.052-0.198,0.158-0.216c2.79-0.431,3.794-2.585,3.804-2.607c0.043-0.096,0.155-0.138,0.25-0.095
			c0.095,0.043,0.138,0.155,0.095,0.25C149.41,167.183,148.604,168.919,146.41,169.668z"/>
		<path style="fill:#FF8B7B;" d="M160.856,162.734c-0.095,1.64-0.938,3.083-1.96,3.964c-1.537,1.326-3.166,0.159-3.458-1.743
			c-0.264-1.711,0.219-4.463,2.108-5.056C159.408,159.314,160.964,160.859,160.856,162.734z"/>
		<path style="fill:#263238;" d="M149.682,157.756c-0.098,0.02-0.204,0.002-0.293-0.059c-1.386-0.961-2.68-0.452-2.695-0.446
			c-0.192,0.076-0.414-0.014-0.493-0.208c-0.079-0.193,0.014-0.413,0.208-0.493c0.068-0.027,1.691-0.668,3.411,0.526
			c0.171,0.119,0.214,0.355,0.095,0.526C149.858,157.684,149.773,157.737,149.682,157.756z"/>
		<path style="fill:#263238;" d="M136.101,160.047c-0.089,0.03-0.189,0.028-0.281-0.014c-0.189-0.088-0.272-0.313-0.184-0.502
			c0.878-1.898,2.603-2.169,2.677-2.179c0.207-0.03,0.399,0.113,0.428,0.32c0.03,0.206-0.113,0.398-0.319,0.429
			c-0.068,0.01-1.402,0.239-2.1,1.748C136.277,159.946,136.195,160.015,136.101,160.047z"/>
		<path style="fill:#FF8B7B;" d="M171.646,199.663c0.153,1.449,0.232,2.714,0.277,4.062c0.048,1.328,0.069,2.654,0.061,3.982
			c-0.043,2.655-0.212,5.315-0.517,7.984c-0.296,2.67-0.791,5.343-1.5,8.01c-0.35,1.335-0.791,2.663-1.295,3.982
			c-0.249,0.66-0.534,1.316-0.825,1.97c-0.007,0.024-0.145,0.315-0.248,0.501c-0.109,0.208-0.23,0.403-0.364,0.582
			c-0.266,0.38-0.557,0.676-0.863,0.962c-0.602,0.523-1.202,0.856-1.751,1.103c-1.086,0.459-1.994,0.619-2.837,0.721
			c-0.84,0.095-1.611,0.111-2.355,0.099c-1.486-0.028-2.862-0.182-4.213-0.372c-2.687-0.416-5.251-0.989-7.771-1.675
			c-2.516-0.689-4.988-1.45-7.437-2.259c-2.441-0.858-4.848-1.71-7.255-2.72l1.247-3.845c2.431,0.53,4.901,1.093,7.36,1.564
			c2.452,0.515,4.909,0.978,7.355,1.36c2.443,0.376,4.879,0.729,7.238,0.878c1.172,0.081,2.332,0.119,3.385,0.059
			c0.524-0.029,1.023-0.083,1.441-0.165c0.411-0.079,0.754-0.199,0.83-0.255c0.024-0.023-0.028-0.02-0.151,0.085
			c-0.085,0.059-0.146,0.135-0.239,0.247l-0.117,0.177c-0.032,0.045-0.088,0.199-0.042,0.073c0.191-0.521,0.38-1.042,0.544-1.583
			c0.333-1.076,0.617-2.185,0.863-3.317c0.489-2.267,0.786-4.62,1.008-7c0.213-2.382,0.286-4.799,0.283-7.22
			c0.01-1.21-0.007-2.423-0.048-3.632c-0.046-1.189-0.105-2.459-0.182-3.538L171.646,199.663z"/>
		<path style="fill:#FF8B7B;" d="M169.459,190.056c3.451,2.255,2.283,21.866,2.283,21.866l-8.123,1.625
			c0,0-0.074-9.953-0.943-16.483C162.09,192.655,167.001,188.449,169.459,190.056z"/>
		<path style="fill:#407BFF;" d="M141.658,408.057c-0.189-0.234-0.246-0.542-0.167-0.918c0.066-0.319,0.261-0.467,0.412-0.534
			c0.957-0.426,3.277,1.121,3.538,1.299c0.059,0.04,0.088,0.116,0.069,0.19c-0.018,0.074-0.078,0.134-0.153,0.152
			c-1.051,0.252-2.918,0.574-3.622-0.104C141.707,408.115,141.682,408.087,141.658,408.057z M144.84,407.98
			c-0.948-0.59-2.301-1.255-2.805-1.031c-0.063,0.028-0.141,0.081-0.174,0.241c-0.062,0.296-0.011,0.517,0.148,0.671
			C142.389,408.227,143.431,408.267,144.84,407.98z"/>
		<path style="fill:#407BFF;" d="M144.281,407.345c-0.559-0.689-1.039-1.586-0.886-2.157c0.046-0.173,0.195-0.471,0.672-0.532
			c0.303-0.039,0.566,0.044,0.783,0.247c0.811,0.76,0.671,3.06,0.664,3.158c-0.005,0.067-0.044,0.129-0.105,0.164
			c-0.06,0.034-0.132,0.035-0.189,0.003C144.953,408.072,144.604,407.743,144.281,407.345z M144.66,405.274
			c-0.025-0.031-0.052-0.06-0.08-0.086c-0.139-0.13-0.3-0.181-0.493-0.157c-0.244,0.031-0.302,0.138-0.327,0.228
			c-0.147,0.549,0.671,1.836,1.389,2.437C145.157,406.975,145.077,405.788,144.66,405.274z"/>
		<g>
			<path style="fill:#FFFFFF;" d="M156.743,235.924l0.35,2.963c0.076,0.234-0.225,0.439-0.596,0.407l-33.018-2.921
				c-0.289-0.026-0.505-0.189-0.494-0.374l0.181-2.916c0.013-0.202,0.291-0.349,0.607-0.321l32.487,2.873
				C156.499,235.657,156.695,235.774,156.743,235.924z"/>
		</g>
		<g>
			<path style="fill:#407BFF;" d="M151.785,239.195l0.87,0.077c0.173,0.015,0.32-0.063,0.326-0.174l0.204-3.792
				c0.006-0.111-0.131-0.214-0.304-0.23L152.01,235c-0.173-0.015-0.32,0.063-0.326,0.174l-0.203,3.792
				C151.475,239.077,151.611,239.18,151.785,239.195z"/>
			<path style="opacity:0.6;" d="M151.785,239.195l0.87,0.077c0.173,0.015,0.32-0.063,0.326-0.174l0.204-3.792
				c0.006-0.111-0.131-0.214-0.304-0.23L152.01,235c-0.173-0.015-0.32,0.063-0.326,0.174l-0.203,3.792
				C151.475,239.077,151.611,239.18,151.785,239.195z"/>
		</g>
		<g>
			<path style="fill:#407BFF;" d="M125.873,236.903l0.87,0.077c0.173,0.015,0.32-0.063,0.326-0.174l0.203-3.792
				c0.006-0.111-0.131-0.214-0.304-0.23l-0.87-0.077c-0.173-0.015-0.32,0.063-0.326,0.174l-0.203,3.792
				C125.563,236.785,125.7,236.888,125.873,236.903z"/>
			<path style="opacity:0.6;" d="M125.873,236.903l0.87,0.077c0.173,0.015,0.32-0.063,0.326-0.174l0.203-3.792
				c0.006-0.111-0.131-0.214-0.304-0.23l-0.87-0.077c-0.173-0.015-0.32,0.063-0.326,0.174l-0.203,3.792
				C125.563,236.785,125.7,236.888,125.873,236.903z"/>
		</g>
		<g>
			<path style="fill:#407BFF;" d="M138.829,238.049l0.87,0.077c0.173,0.015,0.32-0.063,0.326-0.174l0.203-3.792
				c0.006-0.111-0.131-0.214-0.304-0.23l-0.87-0.077c-0.173-0.015-0.32,0.063-0.326,0.174l-0.203,3.792
				C138.519,237.93,138.656,238.034,138.829,238.049z"/>
			<path style="opacity:0.6;" d="M138.829,238.049l0.87,0.077c0.173,0.015,0.32-0.063,0.326-0.174l0.203-3.792
				c0.006-0.111-0.131-0.214-0.304-0.23l-0.87-0.077c-0.173-0.015-0.32,0.063-0.326,0.174l-0.203,3.792
				C138.519,237.93,138.656,238.034,138.829,238.049z"/>
		</g>
		<path style="fill:#FF8B7B;" d="M135.25,223.111l-4.965-6.671l-2.084,7.98c0,0,3.718,3.252,6.88,1.985L135.25,223.111z"/>
		<polygon style="fill:#FF8B7B;" points="123.846,214.973 122.458,221.721 129.21,225.169 130.285,216.44 		"/>
		<path style="fill:#263238;" d="M145.666,160.669l-1.596-0.203C144.069,160.465,145.038,161.537,145.666,160.669z"/>
	</g>
</g>
</svg>
